<svg width="437" height="491" viewBox="0 0 437 491" fill="none" xmlns="http://www.w3.org/2000/svg">
<g clip-path="url(#clip0_259_3398)">
<path d="M148.997 216.173L112.632 208.596L47.773 308.127L51.4871 312.02L148.997 216.173Z" fill="#0088AA"/>
<path d="M159.604 361.129L168.19 414.163L173.481 418.32L260.619 338.401L247.992 307.591L159.604 361.129Z" fill="#0088AA"/>
<path d="M432.918 0.739572C432.918 0.739572 339.554 -15.0068 234.236 98.8155C128.918 212.638 107.003 314.085 107.003 314.085L158.532 358.61C158.532 358.61 252.497 324.417 356.429 206.692C460.362 88.9663 432.918 0.739572 432.918 0.739572Z" fill="url(#paint0_linear_259_3398)"/>
<path d="M157.584 321.228C157.584 321.228 176.777 360.624 147.482 414.163C125.496 454.344 60.6092 452.548 34.3452 468.711C8.08127 484.873 -1.24874e-05 490.934 -1.24874e-05 490.934C-1.24874e-05 490.934 31.3147 439.416 32.3249 404.061C33.335 368.706 39.3959 327.289 81.8223 321.229C124.249 315.168 157.584 321.228 157.584 321.228Z" fill="#FFEEAA"/>
<path d="M154.029 327.535C154.029 327.535 100.913 315.022 60.7434 362.034C32.0508 395.614 67.3113 377.402 22.2234 467.716C96.3597 416.234 89.7971 456.933 128.072 421.757C167.07 384.397 154.029 327.535 154.029 327.535Z" fill="#FFCC00"/>
<path d="M216.447 328.067C215.188 327.633 214.018 327.247 212.492 326.664C210.117 325.756 207.439 324.66 204.518 323.35C201.598 322.04 198.435 320.516 195.093 318.755C191.75 316.993 188.228 314.992 184.587 312.729C180.945 310.465 177.186 307.939 173.369 305.124C169.552 302.309 165.677 299.206 161.808 295.79C157.939 292.374 154.443 289.03 151.287 285.795C148.132 282.56 145.317 279.434 142.81 276.45C140.302 273.466 138.102 270.626 136.177 267.964C134.253 265.302 132.602 262.819 131.194 260.549C130.027 258.668 129.12 257.034 128.267 255.466C112.033 291.307 107.002 314.085 107.002 314.085L158.532 358.61C158.532 358.61 181.19 350.305 216.447 328.067Z" fill="#0088AA"/>
<path d="M125.029 356.439C125.029 356.439 99.0644 350.822 79.1725 372.247C54.1433 399.204 74.3199 394.441 52.1557 435.822C88.5995 412.233 93.4546 415.729 112.269 399.612C131.44 382.493 125.029 356.439 125.029 356.439Z" fill="#FFE680"/>
<path d="M170.075 353.656C163.592 349.391 144.413 336.594 137.885 330.066C130.941 325.138 113.893 307.919 109.948 303.381C107.891 310.197 107.002 314.084 107.002 314.084L158.532 358.609C158.532 358.609 162.66 357.089 170.075 353.656Z" fill="#006781"/>
<path d="M158.532 358.61C158.532 358.61 165.099 414.658 168.103 413.445C171.107 412.231 258.744 335.95 258.744 335.95L248.112 305.303L158.532 358.61Z" fill="#43CBED"/>
<path d="M107.003 314.084C107.003 314.084 50.3326 314.788 51.1643 311.657C51.9959 308.526 116.824 212.107 116.824 212.107L148.552 218.858L107.003 314.084Z" fill="#39C1E3"/>
<path d="M301.786 142.488C322.363 160.654 353.77 158.7 371.936 138.123C390.101 117.546 388.147 86.1393 367.57 67.9735C346.993 49.8077 315.586 51.7621 297.421 72.3388C279.255 92.9156 281.209 124.323 301.786 142.488Z" fill="#006781"/>
<path d="M432.917 0.73972C432.917 0.73972 403.09 -4.28298 358.142 11.8909C361.935 20.4416 370.242 32.8842 388.202 49.2016C403.188 62.8178 417.644 71.956 429.709 77.996C442.106 30.2863 432.917 0.73972 432.917 0.73972Z" fill="#0088AA"/>
<path d="M303.209 140.257C323.342 158.031 354.072 156.118 371.847 135.985C389.621 115.852 387.708 85.1223 367.575 67.3481C347.442 49.574 316.712 51.4863 298.938 71.6194C281.164 91.7525 283.076 122.482 303.209 140.257Z" fill="#0088AA"/>
<path d="M312.675 129.535C326.887 142.081 348.578 140.731 361.125 126.52C373.671 112.308 372.321 90.6164 358.11 78.0699C343.898 65.5235 322.206 66.8733 309.66 81.0849C297.113 95.2965 298.463 116.988 312.675 129.535Z" fill="#55DDFF"/>
<path d="M124.015 328.821C124.015 328.821 115.982 365.715 115.592 367.569C117.994 365.825 199.267 284.124 199.267 284.124L200.363 263.832L124.015 328.821Z" fill="#3FC7E9"/>
<path d="M200.363 263.832L202.149 265.379C202.149 265.379 200.715 285.152 201.014 285.587C200.159 284.96 199.267 284.124 199.267 284.124L200.363 263.832Z" fill="#0088AA"/>
<path d="M115.592 367.569C115.652 367.501 120.228 370.938 120.228 370.938L201.014 285.587L199.267 284.124L115.592 367.569Z" fill="#0088AA"/>
<path d="M336.809 99.3642C341.61 103.603 348.939 103.147 353.178 98.3455C357.416 93.5441 356.96 86.2155 352.159 81.9766C347.357 77.7377 340.029 78.1937 335.79 82.9952C331.551 87.7967 332.007 95.1253 336.809 99.3642Z" fill="#E8FAFF"/>
<path d="M331.231 122.725C334.15 125.303 338.606 125.026 341.184 122.106C343.761 119.187 343.484 114.731 340.564 112.153C337.645 109.576 333.189 109.853 330.611 112.773C328.034 115.692 328.311 120.148 331.231 122.725Z" fill="#E8FAFF"/>
<path d="M317.052 125.243C318.717 126.712 321.258 126.554 322.728 124.89C324.197 123.225 324.039 120.684 322.374 119.214C320.71 117.744 318.169 117.903 316.699 119.567C315.229 121.232 315.387 123.773 317.052 125.243Z" fill="#E8FAFF"/>
<path d="M430.199 17.6777C430.83 27.6535 436.386 72.2259 406.081 120.208C375.777 168.19 245.467 291.934 246.477 289.914C247.487 287.893 391.939 139.401 399.01 110.612C406.081 81.8223 395.475 19.1929 408.607 12.6269C421.739 6.0609 429.888 12.7614 430.199 17.6777Z" fill="#C3EEF9" fill-opacity="0.137795"/>
<path d="M255.072 102.1C246.973 103.423 225.541 119.286 202.684 157.143C179.827 195 142.684 261.429 142.684 261.429C142.684 261.429 223.398 154.38 231.969 144.286C240.541 135.707 259.827 118.571 261.969 114.286C264.112 110 263.171 100.776 255.072 102.1Z" fill="#63C7E0" fill-opacity="0.492126"/>
</g>
<defs>
<linearGradient id="paint0_linear_259_3398" x1="432.918" y1="0.739573" x2="123.066" y2="349.525" gradientUnits="userSpaceOnUse">
<stop stop-color="#0088AA"/>
<stop offset="1" stop-color="#55DDFF"/>
</linearGradient>
<clipPath id="clip0_259_3398">
<rect width="490.934" height="436.196" fill="white" transform="matrix(0 1 -1 0 436.196 0)"/>
</clipPath>
</defs>
</svg>
