<svg width="300" height="151" viewBox="0 0 300 151" fill="none" xmlns="http://www.w3.org/2000/svg">
<path opacity="0.95" d="M86.8093 0.9723C92.8928 0.823194 98.9764 0.70394 105.09 0.584656C105.746 29.3621 105.12 58.1395 105.448 86.9169C90.5668 87.5133 75.6562 87.3642 60.7754 87.6028C67.3659 97.9209 74.5529 107.851 82.6642 117.066C84.6324 110.625 86.5111 104.153 88.3898 97.7121C94.1751 97.8314 99.9306 97.9507 105.746 98.0998C108.042 137.494 61.6403 162.364 28.3002 144.651C10.1093 136.987 1.01392 117.394 0 98.6068C5.84495 98.2191 11.6898 97.8612 17.5646 97.5332C18.3996 123.746 45.3281 139.372 69.0657 129.323C55.5269 108.925 40.2884 89.7201 26.3619 69.5908C46.4613 69.1435 66.5906 69.561 86.69 69.2628C86.9286 46.4794 86.69 23.7258 86.8093 0.9723Z" fill="#0C7DB9"/>
<path opacity="0.95" d="M137.773 2.58485C143.26 2.49538 148.747 2.40593 154.264 2.31647C176.093 27.9925 196.819 54.6228 218.35 80.5672C241.461 55.8455 261.083 28.0521 283.241 2.49539C288.817 2.46557 294.364 2.43578 299.97 2.43578C300.03 51.0741 299.94 99.7124 300 148.351C245.934 148.738 191.839 148.977 137.773 148.231C137.833 99.6826 137.803 51.1337 137.773 2.58485ZM156.59 35.6565C155.487 67.2371 156.143 98.8774 156.202 130.518C197.833 130.697 239.493 130.726 281.123 130.488C281.183 98.937 281.839 67.3564 280.736 35.8355C258.578 57.7242 241.312 84.0265 219.692 106.303C195.775 86.2929 179.821 57.0681 156.59 35.6565Z" fill="#00B4D8"/>
</svg>
