<svg width="0" height="0" class="hidden">
  <symbol fill="none" xmlns="http://www.w3.org/2000/svg" viewBox="0 0 32 32" id="bash">
    <g clip-path="url(#clip0_502_108)">
      <path d="M24.5 0H7.5C3.35786 0 0 3.35786 0 7.5V24.5C0 28.6421 3.35786 32 7.5 32H24.5C28.6421 32 32 28.6421 32 24.5V7.5C32 3.35786 28.6421 0 24.5 0Z" fill="#242938"></path>
      <path fill-rule="evenodd" clip-rule="evenodd" d="M25.4774 8.6044L17.5849 3.9194C17.1244 3.64491 16.5984 3.5 16.0623 3.5C15.5263 3.5 15.0002 3.64491 14.5398 3.9194L6.64725 8.6044C5.70525 9.16378 5.125 10.1969 5.125 11.3153V20.6854C5.125 21.8035 5.70538 22.8373 6.6475 23.3965L14.54 28.0807C15.0004 28.3549 15.5264 28.4998 16.0624 28.4999C16.5983 28.4998 17.1242 28.3549 17.5846 28.0807L25.4771 23.3965C26.4191 22.8373 26.9999 21.8035 26.9999 20.6854V11.3154C26.9999 10.1969 26.4191 9.16365 25.4774 8.6044Z" fill="#242938"></path>
      <path fill-rule="evenodd" clip-rule="evenodd" d="M14.8159 27.601L6.92338 22.9167C6.15138 22.4585 5.67175 21.6035 5.67175 20.6852V11.3154C5.67175 10.3971 6.15137 9.54212 6.923 9.08412L14.8159 4.39913C15.193 4.17483 15.6236 4.05622 16.0624 4.05575C16.4992 4.05575 16.9303 4.1745 17.309 4.39913L25.2015 9.08412C25.852 9.47025 26.2908 10.1389 26.4141 10.8888C26.1524 10.3301 25.562 10.1782 24.8741 10.58L17.4074 15.1921C16.4764 15.7364 15.7899 16.3471 15.7893 17.4697V26.6702C15.7888 27.3425 16.0602 27.7779 16.4772 27.9041C16.3402 27.9279 16.2021 27.9444 16.0624 27.9444C15.6236 27.9439 15.193 27.8253 14.8159 27.601ZM25.4774 8.60425L17.5849 3.9195C17.1244 3.6452 16.5984 3.50028 16.0624 3.5C15.5263 3.50026 15.0003 3.64519 14.5398 3.9195L6.64725 8.60425C5.70525 9.1635 5.125 10.197 5.125 11.3155V20.6852C5.125 21.8034 5.70538 22.8371 6.6475 23.3964L14.54 28.0807C15.0005 28.3548 15.5264 28.4997 16.0624 28.5C16.5983 28.4997 17.1242 28.3549 17.5846 28.0807L25.4774 23.3964C26.4194 22.8371 26.9999 21.8034 26.9999 20.6852V11.3154C26.9999 10.197 26.4194 9.1635 25.4774 8.60425Z" fill="white"></path>
      <path fill-rule="evenodd" clip-rule="evenodd" d="M23.4076 21.5913L21.4423 22.7675C21.3902 22.7979 21.3519 22.832 21.3516 22.8946V23.4089C21.3516 23.4718 21.3938 23.4979 21.4458 23.4673L23.4416 22.2544C23.4936 22.224 23.5016 22.1659 23.5019 22.1033V21.6496C23.5019 21.5871 23.4597 21.5609 23.4076 21.5913Z" fill="#47B353"></path>
      <path fill-rule="evenodd" clip-rule="evenodd" d="M19.2225 17.2622C19.2861 17.2299 19.3385 17.2695 19.3393 17.3528L19.346 18.0327C19.6306 17.9194 19.8778 17.8892 20.1018 17.9409C20.1505 17.9539 20.172 18.02 20.1521 18.0985L20.0025 18.701C19.9908 18.7465 19.9652 18.7925 19.9343 18.8212C19.9228 18.8329 19.9095 18.8427 19.895 18.8504C19.877 18.8603 19.8562 18.8637 19.836 18.86C19.7337 18.8369 19.4906 18.7838 19.1081 18.9775C18.7068 19.1807 18.5665 19.5293 18.5692 19.788C18.5726 20.097 18.7311 20.1907 19.2783 20.2C20.0076 20.2122 20.3227 20.5308 20.3303 21.2653C20.3378 21.9865 19.9528 22.761 19.3638 23.2357L19.3768 23.9087C19.3776 23.9897 19.325 24.0825 19.2613 24.1148L18.8627 24.3444C18.7988 24.3767 18.7465 24.3369 18.7456 24.2559L18.7387 23.5939C18.3973 23.7358 18.0513 23.77 17.8303 23.6813C17.7887 23.665 17.7708 23.6035 17.7873 23.5335L17.9318 22.925C17.9433 22.877 17.9687 22.829 18.0032 22.7985C18.0153 22.7867 18.028 22.7775 18.0406 22.7712C18.0635 22.7597 18.0858 22.7572 18.1048 22.7643C18.343 22.8445 18.6476 22.807 18.9405 22.6588C19.3126 22.4705 19.5615 22.091 19.5576 21.714C19.554 21.3719 19.3688 21.2298 18.9185 21.2264C18.3452 21.228 17.8108 21.115 17.802 20.2712C17.7948 19.5764 18.1561 18.8534 18.728 18.3963L18.7208 17.7169C18.72 17.6334 18.771 17.5415 18.8366 17.5085L19.2225 17.2622Z" fill="#242938"></path>
    </g>
    <defs>
      <clipPath id="clip0_502_108">
        <rect width="32" height="32" fill="white"></rect>
      </clipPath>
    </defs>
  </symbol>
  <symbol fill="none" xmlns="http://www.w3.org/2000/svg" viewBox="0 0 32 32" id="css">
    <g clip-path="url(#clip0_502_120)">
      <path d="M24.5 0H7.5C3.35786 0 0 3.35786 0 7.5V24.5C0 28.6421 3.35786 32 7.5 32H24.5C28.6421 32 32 28.6421 32 24.5V7.5C32 3.35786 28.6421 0 24.5 0Z" fill="#0277BD"></path>
      <path d="M6.71912 12.8314L7.07688 16.8241H16.012V12.8314H6.71912ZM16.0119 4.75H6L6.363 8.74275H16.0119V4.75ZM16.0119 27.3551V23.201L15.9944 23.2056L11.5476 22.005L11.2634 18.8205H7.25525L7.81462 25.0898L15.9935 27.3603L16.0119 27.3551Z" fill="#EBEBEB"></path>
      <path d="M20.9166 16.8241L20.4531 22.0024L16 23.2044V27.3582L24.1854 25.0898L24.2454 24.4151L25.1836 13.9036L25.281 12.8314L26.0019 4.75H16V8.74275H21.6261L21.2629 12.8314H16V16.8241H20.9166Z" fill="white"></path>
    </g>
    <defs>
      <clipPath id="clip0_502_120">
        <rect width="32" height="32" fill="white"></rect>
      </clipPath>
    </defs>
  </symbol>
  <symbol fill="none" xmlns="http://www.w3.org/2000/svg" viewBox="0 0 32 32" id="docker">
    <g clip-path="url(#clip0_502_125)">
      <path d="M24.5 0H7.5C3.35786 0 0 3.35786 0 7.5V24.5C0 28.6421 3.35786 32 7.5 32H24.5C28.6421 32 32 28.6421 32 24.5V7.5C32 3.35786 28.6421 0 24.5 0Z" fill="#2396ED"></path>
      <path d="M17.6484 15.2654H20.238V12.9224H17.6484V15.2654ZM14.5656 15.2654H17.1551V12.9224H14.5656V15.2654ZM11.5444 15.2654H14.134V12.9224H11.5444V15.2654ZM8.52312 15.2654H11.0512V12.9224H8.52325L8.52312 15.2654ZM5.44037 15.2654H8.03V12.9224H5.44037V15.2654ZM8.52325 12.4291H11.0511V10.0863H8.52325V12.4291ZM11.5445 12.4291H14.134V10.0863H11.5444L11.5445 12.4291ZM14.5656 12.4291H17.1551V10.0863H14.5656V12.4291ZM14.5656 9.59287H17.1551V7.25H14.5656V9.593V9.59287ZM28.5 14.2174C28.5 14.2174 27.3901 13.1691 25.1089 13.5391C24.8622 11.751 22.9509 10.7029 22.9509 10.7029C22.9509 10.7029 21.1629 12.8609 22.4576 15.2655C22.0877 15.4505 21.4711 15.6971 20.5462 15.6971H3.59075C3.28237 16.8686 3.28237 24.6373 11.791 24.6373C17.895 24.6373 22.4576 21.8011 24.6156 16.6219C27.8217 16.8685 28.5 14.2174 28.5 14.2174Z" fill="white"></path>
    </g>
    <defs>
      <clipPath id="clip0_502_125">
        <rect width="32" height="32" fill="white"></rect>
      </clipPath>
    </defs>
  </symbol>
  <symbol fill="none" xmlns="http://www.w3.org/2000/svg" viewBox="0 0 32 32" id="expressjs">
    <g clip-path="url(#clip0_502_129)">
      <path d="M24.5 0H7.5C3.35786 0 0 3.35786 0 7.5V24.5C0 28.6421 3.35786 32 7.5 32H24.5C28.6421 32 32 28.6421 32 24.5V7.5C32 3.35786 28.6421 0 24.5 0Z" fill="#242938"></path>
      <path d="M28.5 22.8672C28.1361 23.005 27.7343 23.0047 27.3706 22.8664C27.0069 22.7281 26.7065 22.4613 26.5261 22.1166C25.3932 20.4207 24.1422 18.8013 22.9399 17.1472L22.4185 16.4522C20.9868 18.3704 19.555 20.2122 18.2484 22.1236C18.0782 22.4531 17.794 22.7095 17.4488 22.8451C17.1035 22.9806 16.7208 22.986 16.3719 22.8603L21.7444 15.6529L16.7471 9.14043C17.1068 9.01053 17.5004 9.00874 17.8613 9.13536C18.2222 9.26198 18.5283 9.50925 18.728 9.83543C19.8886 11.5314 21.1745 13.1508 22.4533 14.8676C23.7391 13.1647 25.011 11.5383 26.1995 9.8563C26.3706 9.53212 26.655 9.28217 26.9984 9.15401C27.3419 9.02586 27.7205 9.02846 28.0621 9.1613L26.123 11.7329C25.2542 12.8797 24.3994 14.0334 23.4959 15.1524C23.423 15.2176 23.3647 15.2974 23.3248 15.3866C23.2849 15.4759 23.2643 15.5725 23.2643 15.6702C23.2643 15.768 23.2849 15.8646 23.3248 15.9539C23.3647 16.0431 23.423 16.1229 23.4959 16.1881C25.157 18.3913 26.8041 20.6014 28.5 22.8672ZM3.5 15.5626C3.646 14.8676 3.73625 14.1099 3.93788 13.4011C5.14025 9.12668 10.0401 7.3473 13.411 9.99543C15.3849 11.5454 15.8784 13.7417 15.7811 16.2159H4.66075C4.48 20.6363 7.67013 23.3052 11.7499 21.9429C12.4117 21.7062 13.0041 21.3083 13.4737 20.7854C13.9433 20.2624 14.2752 19.6307 14.4396 18.9473C14.6551 18.2523 15.0026 18.1342 15.6629 18.3357C15.5542 19.1818 15.255 19.9923 14.7879 20.7062C14.3209 21.42 13.698 22.0187 12.9663 22.4572C11.7572 23.1184 10.37 23.3804 9.00311 23.2056C7.6362 23.0308 6.35955 22.4283 5.35575 21.4842C4.36266 20.3676 3.7622 18.9567 3.646 17.4669C3.646 17.2307 3.55562 16.9943 3.507 16.7719C3.5024 16.3688 3.50007 15.9657 3.5 15.5626ZM4.67462 15.2637H14.7316C14.669 12.0597 12.6465 9.78693 9.94987 9.76618C6.94737 9.72443 4.79975 11.9484 4.66762 15.2498L4.67462 15.2637Z" fill="white"></path>
    </g>
    <defs>
      <clipPath id="clip0_502_129">
        <rect width="32" height="32" fill="white"></rect>
      </clipPath>
    </defs>
  </symbol>
  <symbol fill="none" xmlns="http://www.w3.org/2000/svg" viewBox="0 0 32 32" id="git">
    <g clip-path="url(#clip0_502_145)">
      <path d="M24.5 0H7.5C3.35786 0 0 3.35786 0 7.5V24.5C0 28.6421 3.35786 32 7.5 32H24.5C28.6421 32 32 28.6421 32 24.5V7.5C32 3.35786 28.6421 0 24.5 0Z" fill="#F03C2E"></path>
      <mask id="mask0_502_145" maskUnits="userSpaceOnUse" x="3" y="3" width="26" height="26">
        <path d="M3.5 3.5H28.5V28.5H3.5V3.5Z" fill="white"></path>
      </mask>
      <g mask="url(#mask0_502_145)">
        <path d="M28.0289 14.8867L17.1141 3.97184C16.889 3.74653 16.6022 3.59309 16.2899 3.53094C15.9776 3.46879 15.6538 3.50073 15.3597 3.62271C15.1644 3.70365 14.987 3.82228 14.8376 3.97184L12.5719 6.23746L15.4469 9.11246C16.1157 8.87809 16.8813 9.03821 17.4141 9.57109C17.6677 9.82518 17.8447 10.1455 17.925 10.4954C18.0052 10.8453 17.9855 11.2107 17.8679 11.55L20.6391 14.3211C21.3094 14.0898 22.0828 14.239 22.6179 14.7757C22.886 15.0437 23.0685 15.3851 23.1424 15.7568C23.2163 16.1286 23.1783 16.5139 23.0331 16.864C22.8384 17.3333 22.4653 17.7062 21.9959 17.9006C21.5264 18.095 20.9989 18.095 20.5294 17.9006C20.2969 17.8042 20.0857 17.6631 19.9078 17.4851C19.3453 16.9226 19.2063 16.0945 19.4907 15.4015L16.9063 12.8171V19.618C17.0939 19.7108 17.2654 19.8332 17.4141 19.9805C17.7734 20.3397 17.9752 20.827 17.9752 21.3351C17.9752 21.8433 17.7734 22.3306 17.4141 22.6898C17.0548 23.0491 16.5675 23.251 16.0594 23.251C15.5513 23.251 15.064 23.0491 14.7047 22.6898C14.4365 22.422 14.2539 22.0806 14.1799 21.7089C14.1059 21.3372 14.1438 20.9519 14.2889 20.6018C14.3853 20.3694 14.5266 20.1582 14.7047 19.9805C14.8898 19.7961 15.0953 19.6562 15.3321 19.5625V12.6983C15.0972 12.6023 14.8839 12.4602 14.7047 12.2805C14.4357 12.0118 14.2528 11.669 14.1794 11.296C14.1059 10.9229 14.1452 10.5365 14.2922 10.1858L11.4563 7.35159L3.97195 14.8281C3.74664 15.0532 3.59318 15.3402 3.53099 15.6526C3.46879 15.965 3.50067 16.2888 3.62257 16.5831C3.70359 16.7785 3.82231 16.956 3.97195 17.1055L14.8876 28.0195C15.037 28.169 15.2144 28.2876 15.4097 28.3686C15.8042 28.5319 16.2474 28.5319 16.6419 28.3686C16.8372 28.2876 17.0146 28.169 17.1641 28.0195L28.0289 17.1718C28.1785 17.0223 28.2972 16.8448 28.3782 16.6495C28.4592 16.4541 28.5009 16.2447 28.5009 16.0332C28.501 15.8217 28.4593 15.6123 28.3783 15.4169C28.2973 15.2215 28.1786 15.0439 28.0289 14.8945" fill="white"></path>
      </g>
    </g>
    <defs>
      <clipPath id="clip0_502_145">
        <rect width="32" height="32" fill="white"></rect>
      </clipPath>
    </defs>
  </symbol>
  <symbol fill="none" xmlns="http://www.w3.org/2000/svg" viewBox="0 0 32 32" id="github">
    <g clip-path="url(#clip0_502_153)">
      <path d="M24.5 0H7.5C3.35786 0 0 3.35786 0 7.5V24.5C0 28.6421 3.35786 32 7.5 32H24.5C28.6421 32 32 28.6421 32 24.5V7.5C32 3.35786 28.6421 0 24.5 0Z" fill="#242938"></path>
      <path d="M16.0001 3.75C9.09738 3.75 3.5 9.34625 3.5 16.2501C3.5 21.773 7.08162 26.4585 12.0484 28.1114C12.673 28.2271 12.9024 27.8402 12.9024 27.5101C12.9024 27.212 12.8908 26.2274 12.8854 25.1829C9.40788 25.939 8.67412 23.708 8.67412 23.708C8.10537 22.2631 7.28613 21.879 7.28613 21.879C6.152 21.1031 7.37162 21.1191 7.37162 21.1191C8.62687 21.2073 9.28788 22.4072 9.28788 22.4072C10.4028 24.3182 12.2121 23.7657 12.9254 23.4464C13.0376 22.6384 13.3615 22.087 13.719 21.7749C10.9425 21.4588 8.024 20.3869 8.024 15.5972C8.024 14.2325 8.51225 13.1174 9.31188 12.242C9.182 11.9271 8.75412 10.6558 9.43287 8.934C9.43287 8.934 10.4826 8.598 12.8714 10.2153C13.8685 9.93838 14.9378 9.7995 16.0001 9.79475C17.0624 9.7995 18.1326 9.93837 19.1315 10.2154C21.5174 8.598 22.5656 8.93412 22.5656 8.93412C23.246 10.6557 22.818 11.9272 22.6881 12.242C23.4896 13.1174 23.9746 14.2325 23.9746 15.5972C23.9746 20.3984 21.0504 21.4555 18.2669 21.7649C18.7152 22.1529 19.1147 22.9135 19.1147 24.0798C19.1147 25.7523 19.1003 27.0984 19.1003 27.5101C19.1003 27.8427 19.3253 28.2325 19.9589 28.1098C24.9229 26.455 28.5 21.7711 28.5 16.2501C28.5 9.34638 22.9034 3.75 16.0001 3.75ZM8.18175 21.5566C8.15425 21.6188 8.0565 21.6374 7.9675 21.5947C7.87675 21.554 7.82587 21.4692 7.85525 21.407C7.88212 21.343 7.98013 21.3253 8.0705 21.3681C8.16138 21.4089 8.21313 21.4944 8.18175 21.5566ZM8.79663 22.1052C8.737 22.1606 8.62038 22.1349 8.54138 22.0475C8.45963 21.9604 8.44425 21.8439 8.50475 21.7878C8.56613 21.7325 8.67925 21.7584 8.76112 21.8455C8.84287 21.9338 8.85888 22.0494 8.79663 22.1052ZM9.21838 22.8072C9.14175 22.8605 9.0165 22.8106 8.93913 22.6994C8.8625 22.5883 8.8625 22.455 8.94075 22.4015C9.01838 22.3481 9.14175 22.3961 9.22025 22.5065C9.29663 22.6195 9.29663 22.7529 9.21838 22.8072ZM9.93175 23.6203C9.86325 23.6958 9.71738 23.6755 9.6105 23.5724C9.50125 23.4716 9.47075 23.3286 9.5395 23.253C9.60888 23.1773 9.75562 23.1986 9.86325 23.3009C9.97175 23.4014 10.0049 23.5455 9.93175 23.6203ZM10.8538 23.8946C10.8235 23.9926 10.683 24.0371 10.5414 23.9955C10.4001 23.9526 10.3075 23.838 10.3361 23.739C10.3655 23.6405 10.5066 23.5941 10.6493 23.6386C10.7905 23.6812 10.8831 23.7951 10.8538 23.8946ZM11.903 24.0111C11.9065 24.1141 11.7865 24.1996 11.6379 24.2015C11.4884 24.2049 11.3675 24.1214 11.3659 24.02C11.3659 23.9159 11.4832 23.8313 11.6326 23.8288C11.7814 23.8259 11.903 23.9086 11.903 24.0111ZM12.9338 23.9716C12.9516 24.0721 12.8484 24.1755 12.7008 24.203C12.5556 24.2295 12.4212 24.1674 12.4029 24.0676C12.3849 23.9645 12.49 23.8612 12.6349 23.8345C12.7828 23.8089 12.915 23.8694 12.9338 23.9716Z" fill="white"></path>
    </g>
    <defs>
      <clipPath id="clip0_502_153">
        <rect width="32" height="32" fill="white"></rect>
      </clipPath>
    </defs>
  </symbol>
  <symbol fill="none" xmlns="http://www.w3.org/2000/svg" viewBox="0 0 32 32" id="html">
    <g clip-path="url(#clip0_502_157)">
      <path d="M24.5 0H7.5C3.35786 0 0 3.35786 0 7.5V24.5C0 28.6421 3.35786 32 7.5 32H24.5C28.6421 32 32 28.6421 32 24.5V7.5C32 3.35786 28.6421 0 24.5 0Z" fill="#E14E1D"></path>
      <path d="M6 4.75L7.07625 16.8241H20.915L20.4506 22.0029L15.9949 23.2076L11.5475 22.0046L11.2501 18.6794H7.2425L7.81563 25.0895L15.994 27.361L24.1828 25.0895L25.2806 12.8319H10.728L10.3626 8.74312H25.6424L26 4.75H6Z" fill="white"></path>
      <path d="M16 4.75H6L7.07625 16.8241H16V12.8319H10.728L10.3626 8.74312H16V4.75ZM16 23.2059L15.9949 23.2076L11.5475 22.0046L11.2501 18.6794H7.2425L7.81563 25.0895L15.994 27.361L16.0001 27.3592V23.2059H16Z" fill="#EBEBEB"></path>
    </g>
    <defs>
      <clipPath id="clip0_502_157">
        <rect width="32" height="32" fill="white"></rect>
      </clipPath>
    </defs>
  </symbol>
  <symbol fill="none" xmlns="http://www.w3.org/2000/svg" viewBox="0 0 32 32" id="javascript">
    <g clip-path="url(#clip0_502_162)">
      <path d="M24.5 0H7.5C3.35786 0 0 3.35786 0 7.5V24.5C0 28.6421 3.35786 32 7.5 32H24.5C28.6421 32 32 28.6421 32 24.5V7.5C32 3.35786 28.6421 0 24.5 0Z" fill="#F0DB4F"></path>
      <path d="M8.41419 26.7414L10.8629 25.2594C11.3354 26.097 11.7652 26.8058 12.7961 26.8058C13.7842 26.8058 14.4072 26.4193 14.4072 24.9158V14.691H17.4144V24.9583C17.4144 28.0729 15.5887 29.4907 12.9249 29.4907C10.5193 29.4907 9.12294 28.2448 8.41406 26.7412M19.0478 26.4192L21.4963 25.0015C22.1409 26.0542 22.9787 26.8274 24.4607 26.8274C25.7068 26.8274 26.5013 26.2044 26.5013 25.3452C26.5013 24.3142 25.6851 23.9489 24.3103 23.3477L23.5587 23.0253C21.3891 22.1018 19.9498 20.9418 19.9498 18.493C19.9498 16.2375 21.6683 14.519 24.3534 14.519C26.2652 14.519 27.6399 15.185 28.6279 16.9249L26.2866 18.4285C25.7709 17.5049 25.2127 17.1398 24.3534 17.1398C23.4727 17.1398 22.9142 17.6983 22.9142 18.4285C22.9142 19.3307 23.4727 19.6959 24.7614 20.2545L25.5132 20.5767C28.0693 21.6723 29.5086 22.789 29.5086 25.3022C29.5086 28.0089 27.3821 29.4909 24.5252 29.4909C21.7328 29.4909 19.9284 28.1592 19.0478 26.4192Z" fill="#323330"></path>
    </g>
    <defs>
      <clipPath id="clip0_502_162">
        <rect width="32" height="32" fill="white"></rect>
      </clipPath>
    </defs>
  </symbol>
  <symbol fill="none" xmlns="http://www.w3.org/2000/svg" viewBox="0 0 32 32" id="mongodb">
    <g clip-path="url(#clip0_502_182)">
      <path d="M24.5 0H7.5C3.35786 0 0 3.35786 0 7.5V24.5C0 28.6421 3.35786 32 7.5 32H24.5C28.6421 32 32 28.6421 32 24.5V7.5C32 3.35786 28.6421 0 24.5 0Z" fill="#023430"></path>
      <path d="M21.3966 13.4489C20.0795 7.63875 17.3345 6.092 16.6342 4.99862C16.3454 4.51696 16.0897 4.01627 15.8686 3.5C15.8316 4.01625 15.7636 4.34125 15.3249 4.73275C14.444 5.51812 10.7027 8.56687 10.3879 15.1685C10.0945 21.3238 14.9129 25.1191 15.5494 25.5115C16.0389 25.7524 16.635 25.5166 16.9259 25.2955C19.2485 23.7015 22.422 19.4518 21.3991 13.4489" fill="#10AA50"></path>
      <path d="M16.0669 22.2339C15.9457 23.7574 15.8588 24.6426 15.5508 25.5133C15.5508 25.5133 15.7529 26.9636 15.8949 28.5H16.3973C16.5171 27.4181 16.7001 26.3441 16.9453 25.2835C16.2949 24.9635 16.0919 23.5708 16.0669 22.2339Z" fill="#B8C4C2"></path>
      <path d="M16.9474 25.2845C16.2902 24.9809 16.1001 23.5587 16.0708 22.234C16.2333 20.0486 16.2807 17.8562 16.2128 15.6659C16.1783 14.5166 16.2291 5.02111 15.9297 3.63086C16.1345 4.10172 16.3705 4.5584 16.6361 4.99786C17.3363 6.09211 20.0822 7.63886 21.3984 13.449C22.4238 19.4416 19.2676 23.6801 16.9474 25.2845Z" fill="#12924F"></path>
    </g>
    <defs>
      <clipPath id="clip0_502_182">
        <rect width="32" height="32" fill="white"></rect>
      </clipPath>
    </defs>
  </symbol>
  <symbol fill="none" xmlns="http://www.w3.org/2000/svg" viewBox="0 0 32 32" id="mysql">
    <g clip-path="url(#clip0_502_170)">
      <path d="M24.5 0H7.5C3.35786 0 0 3.35786 0 7.5V24.5C0 28.6421 3.35786 32 7.5 32H24.5C28.6421 32 32 28.6421 32 24.5V7.5C32 3.35786 28.6421 0 24.5 0Z" fill="#242938"></path>
      <mask id="mask0_502_170" maskUnits="userSpaceOnUse" x="4" y="4" width="24" height="24">
        <path d="M4.75 4.75H27.25V27.25H4.75V4.75Z" fill="white"></path>
      </mask>
      <g mask="url(#mask0_502_170)">
        <path fill-rule="evenodd" clip-rule="evenodd" d="M25.4753 22.276C24.2515 22.242 23.3022 22.3674 22.5065 22.7021C22.2774 22.7941 21.9098 22.7941 21.8795 23.0825C22.002 23.2035 22.0168 23.4015 22.1242 23.5693C22.3075 23.8736 22.6293 24.2836 22.9198 24.4964L23.899 25.1961C24.4958 25.5608 25.169 25.7739 25.7504 26.1389C26.0872 26.3519 26.4237 26.6256 26.7604 26.854C26.9319 26.9756 27.0358 27.1738 27.2502 27.2494V27.2034C27.1432 27.067 27.1123 26.8694 27.0057 26.7166L26.546 26.2759C26.1027 25.6829 25.5514 25.1654 24.9547 24.74C24.4649 24.4054 23.3942 23.9493 23.1952 23.3869L23.165 23.3528C23.5012 23.3188 23.899 23.2004 24.2207 23.1091C24.7413 22.9728 25.2153 23.0028 25.7504 22.866L26.4854 22.653V22.5166C26.2099 22.243 26.011 21.8779 25.7205 21.6196C24.9403 20.9505 24.0828 20.2964 23.1952 19.749C22.7209 19.445 22.1087 19.2469 21.6038 18.9889C21.4197 18.8975 21.114 18.8519 21.007 18.6999C20.7309 18.3659 20.5783 17.9244 20.3794 17.5288L19.1248 14.8828C18.8494 14.2896 18.6807 13.6965 18.3445 13.1491C16.7682 10.5638 15.054 8.99765 12.422 7.4614C11.8562 7.14202 11.1829 7.00465 10.467 6.83765L9.31955 6.7764C9.0743 6.67002 8.82967 6.3809 8.61542 6.2439C7.74317 5.6964 5.49367 4.5104 4.85042 6.07352C4.43729 7.0619 5.4628 8.03502 5.81092 8.53715C6.07155 8.8869 6.40767 9.28215 6.5918 9.67765C6.69467 9.93602 6.72904 10.21 6.83642 10.4838C7.08092 11.1528 7.31067 11.8983 7.63205 12.522C7.80355 12.8414 7.98367 13.1764 8.19792 13.4651C8.32042 13.6355 8.53479 13.7085 8.58042 13.9821C8.36604 14.2865 8.3513 14.7423 8.2288 15.123C7.67767 16.8415 7.89204 18.9705 8.67229 20.2358C8.91754 20.6158 9.49542 21.4525 10.2795 21.1329C10.9682 20.8591 10.8145 19.9924 11.0134 19.2319C11.0597 19.0496 11.0289 18.9279 11.1204 18.8059V18.84L11.748 20.1021C12.2224 20.8473 13.049 21.623 13.7373 22.1404C14.1043 22.4141 14.3952 22.8859 14.854 23.0529V23.0069H14.8239C14.7319 22.8705 14.594 22.8091 14.4717 22.7028C14.1963 22.4291 13.8903 22.0944 13.6759 21.7904C13.0335 20.9389 12.4677 19.9958 11.9624 19.0226C11.7173 18.5513 11.5029 18.0341 11.3047 17.5628C11.212 17.3801 11.212 17.106 11.0594 17.0154C10.8295 17.3494 10.4935 17.6391 10.3244 18.0495C10.0335 18.7033 10.0034 19.5094 9.89642 20.3459C9.83467 20.3611 9.86205 20.3459 9.83467 20.3799C9.34555 20.2586 9.1768 19.7561 8.99342 19.3308C8.53442 18.251 8.45755 16.5174 8.85542 15.2703C8.96242 14.9509 9.42204 13.9471 9.23854 13.643C9.14604 13.354 8.84067 13.187 8.67192 12.9586C8.47305 12.6696 8.25942 12.3049 8.12155 11.9855C7.75455 11.1334 7.57105 10.1909 7.1728 9.33927C6.98867 8.94377 6.66767 8.53302 6.4073 8.1684C6.11642 7.75765 5.7958 7.46852 5.56605 6.98215C5.48955 6.81177 5.38254 6.54115 5.50492 6.3584C5.53517 6.23677 5.5968 6.18802 5.71867 6.16077C5.91742 5.99027 6.48417 6.2064 6.68305 6.29702C7.24892 6.5254 7.7233 6.73815 8.19767 7.05715C8.41205 7.20915 8.6418 7.49827 8.91717 7.57465H9.23892C9.72867 7.6809 10.2792 7.60865 10.7377 7.74502C11.5489 8.00402 12.2832 8.38377 12.9417 8.79477C14.946 10.057 16.5992 11.8515 17.7158 13.9961C17.8993 14.3459 17.9758 14.6653 18.1445 15.0303C18.4663 15.7758 18.8642 16.5359 19.1848 17.2663C19.5065 17.981 19.8124 18.7115 20.2714 19.3045C20.5012 19.6239 21.4189 19.7909 21.8319 19.9583C22.1382 20.0946 22.6122 20.2174 22.8883 20.3844C23.4082 20.7038 23.9285 21.0688 24.4179 21.4185C24.6624 21.6005 25.428 21.9809 25.4735 22.2843L25.4753 22.276ZM9.86992 9.06065C9.65856 9.05879 9.44784 9.08434 9.24305 9.13665V9.17077H9.27317C9.39567 9.41415 9.61004 9.58152 9.76292 9.79452L10.1152 10.5245L10.1454 10.4905C10.3597 10.3385 10.467 10.0951 10.467 9.73052C10.3752 9.62415 10.36 9.5174 10.2835 9.41102C10.1917 9.25902 9.9928 9.18265 9.86992 9.0614V9.06065Z" fill="white"></path>
      </g>
    </g>
    <defs>
      <clipPath id="clip0_502_170">
        <rect width="32" height="32" fill="white"></rect>
      </clipPath>
    </defs>
  </symbol>
  <symbol fill="none" xmlns="http://www.w3.org/2000/svg" viewBox="0 0 32 32" id="nodejs">
    <g clip-path="url(#clip0_502_226)">
      <path d="M24.5 0H7.5C3.35786 0 0 3.35786 0 7.5V24.5C0 28.6421 3.35786 32 7.5 32H24.5C28.6421 32 32 28.6421 32 24.5V7.5C32 3.35786 28.6421 0 24.5 0Z" fill="#242938"></path>
      <path d="M14.9847 3.88952C15.5996 3.53764 16.4003 3.53602 17.0146 3.88952C20.1048 5.63577 23.1961 7.37914 26.2858 9.12639C26.8671 9.45377 27.2557 10.1005 27.2498 10.7701V21.2758C27.2542 21.9731 26.8271 22.6354 26.214 22.9553C23.1338 24.6919 20.0552 26.4305 16.9756 28.1671C16.3482 28.5259 15.5313 28.4983 14.9233 28.11C14 27.5748 13.075 27.042 12.1515 26.5073C11.9627 26.3948 11.75 26.3053 11.6167 26.1223C11.7346 25.9635 11.9452 25.9438 12.1163 25.8744C12.5017 25.7518 12.8558 25.555 13.2098 25.3641C13.2995 25.3029 13.4087 25.3264 13.4946 25.3811C14.2842 25.8339 15.067 26.2999 15.8592 26.7483C16.0282 26.8459 16.1993 26.7163 16.3438 26.6358C19.3663 24.9274 22.3926 23.2256 25.4147 21.5168C25.5267 21.4629 25.5886 21.344 25.5795 21.2214C25.5816 17.7558 25.58 14.2896 25.5806 10.8239C25.5933 10.6849 25.5128 10.5569 25.387 10.4999C22.3176 8.77127 19.2496 7.04014 16.1807 5.31114C16.1276 5.27456 16.0646 5.25492 16 5.25481C15.9355 5.2547 15.8725 5.27412 15.8192 5.31052C12.7502 7.04014 9.68295 8.77302 6.61395 10.5014C6.48858 10.5585 6.40445 10.6844 6.41933 10.8239C6.41995 14.2896 6.41933 17.7558 6.41933 21.2219C6.414 21.2818 6.42716 21.3418 6.45702 21.394C6.48688 21.4462 6.53201 21.4879 6.58633 21.5136C7.4052 21.978 8.2252 22.4391 9.0447 22.902C9.50645 23.1504 10.0732 23.2981 10.5818 23.1078C11.0307 22.9468 11.3453 22.4886 11.3368 22.0121C11.3411 18.5668 11.3347 15.1209 11.34 11.6759C11.3287 11.523 11.4738 11.3966 11.6226 11.4111C12.0161 11.4084 12.4101 11.4058 12.8036 11.4121C12.9678 11.4084 13.0808 11.5731 13.0606 11.7271C13.059 15.1944 13.0648 18.6616 13.058 22.1288C13.059 23.0529 12.6793 24.0584 11.8246 24.5105C10.7717 25.0559 9.4702 24.9403 8.42995 24.4173C7.52945 23.9678 6.66995 23.4373 5.78545 22.9558C5.1707 22.6376 4.7457 21.9728 4.75008 21.2759V10.7701C4.74358 10.0866 5.1477 9.42814 5.74695 9.10552C8.82658 7.36764 11.9057 5.62827 14.9847 3.88952Z" fill="#81CD39"></path>
      <path d="M17.6713 11.1671C19.0145 11.0806 20.4523 11.1158 21.661 11.7776C22.5968 12.2846 23.1156 13.3488 23.1321 14.3885C23.106 14.5286 22.9593 14.606 22.8255 14.5963C22.4358 14.5958 22.046 14.6017 21.6563 14.5937C21.491 14.6001 21.395 14.4477 21.3742 14.3016C21.2622 13.8041 20.9908 13.3115 20.5227 13.0715C19.804 12.7117 18.9707 12.7298 18.187 12.7373C17.6148 12.7676 16.9996 12.8172 16.5148 13.1536C16.1427 13.4085 16.0297 13.923 16.1625 14.3373C16.2877 14.6348 16.6311 14.7308 16.9122 14.8193C18.5308 15.2427 20.2461 15.2005 21.8338 15.7576C22.4912 15.9847 23.1342 16.4263 23.3592 17.1146C23.6536 18.0371 23.5246 19.1396 22.8682 19.8801C22.336 20.4895 21.5608 20.8212 20.7877 21.0013C19.7592 21.2307 18.6918 21.2366 17.6473 21.1347C16.6652 21.0227 15.6431 20.7647 14.885 20.0956C14.2366 19.5326 13.92 18.6553 13.9513 17.8088C13.9588 17.6658 14.1012 17.5661 14.2382 17.5778C14.6306 17.5747 15.0231 17.5736 15.4155 17.5785C15.5723 17.5672 15.6885 17.7027 15.6966 17.8505C15.7688 18.3243 15.947 18.8218 16.3603 19.1027C17.1578 19.6173 18.1587 19.5821 19.072 19.5965C19.8286 19.563 20.678 19.5528 21.2953 19.0527C21.6211 18.7675 21.7176 18.2902 21.6296 17.8797C21.5342 17.5331 21.1716 17.3716 20.8602 17.266C19.2623 16.7606 17.5278 16.944 15.9455 16.3723C15.303 16.1453 14.6817 15.7161 14.435 15.0561C14.0906 14.122 14.2483 12.9665 14.9735 12.2511C15.6805 11.5392 16.701 11.2651 17.6713 11.1671Z" fill="#81CD39"></path>
    </g>
    <defs>
      <clipPath id="clip0_502_226">
        <rect width="32" height="32" fill="white"></rect>
      </clipPath>
    </defs>
  </symbol>
  <symbol fill="none" xmlns="http://www.w3.org/2000/svg" viewBox="0 0 32 32" id="postgresql">
    <g clip-path="url(#clip0_502_188)">
      <path d="M24.5 0H7.5C3.35786 0 0 3.35786 0 7.5V24.5C0 28.6421 3.35786 32 7.5 32H24.5C28.6421 32 32 28.6421 32 24.5V7.5C32 3.35786 28.6421 0 24.5 0Z" fill="#242938"></path>
      <path d="M25.4336 18.5861C22.8936 19.1099 22.7091 18.2495 22.7091 18.2495C25.3924 14.268 26.5148 9.21426 25.5461 7.97763C22.906 4.60263 18.3348 6.19963 18.2583 6.24101L18.2336 6.24538C17.6753 6.13332 17.1077 6.07414 16.5383 6.06863C15.3886 6.05113 14.5168 6.37013 13.8541 6.87201C13.8541 6.87201 5.69964 3.51288 6.07926 11.097C6.16014 12.7106 8.39076 23.3138 11.0539 20.1058C12.0348 18.9263 12.9751 17.9356 12.9751 17.9356C13.441 18.2459 14.0009 18.4041 14.5871 18.347L14.6328 18.3084C14.6194 18.4603 14.6256 18.6133 14.6513 18.7636C13.9658 19.53 14.1679 19.6645 12.7968 19.9466C11.4099 20.2323 12.2255 20.7411 12.7564 20.8748C13.4015 21.0365 14.8939 21.265 15.9029 19.8535L15.8624 20.0143C16.1314 20.2296 16.3194 21.4144 16.2878 22.4884C16.2561 23.5625 16.235 24.299 16.446 24.8755C16.6569 25.4521 16.8679 26.7476 18.6696 26.3696C20.1753 26.0471 20.9548 25.2095 21.0646 23.8156C21.142 22.8241 21.316 22.97 21.3284 22.0841L21.469 21.664C21.6298 20.3193 21.4953 19.886 22.4225 20.0881L22.6484 20.1084C23.3314 20.1391 24.2253 19.9985 24.749 19.755C25.8784 19.2313 26.5481 18.3558 25.4345 18.5861H25.4336Z" fill="#336791"></path>
      <path d="M18.2583 6.07444C17.9771 6.16232 22.7971 4.31232 25.5374 7.81294C26.5043 9.04957 25.3837 14.1033 22.7003 18.0847M16.0118 19.2229C15.9416 21.7243 16.0294 24.2432 16.2738 24.8479C16.5181 25.4526 17.0428 26.6497 18.8454 26.2647C20.3511 25.9422 20.8994 25.3172 21.1368 23.9382L21.6931 19.5288L16.0118 19.2229ZM13.8516 6.68357C13.8516 6.68357 5.6917 3.34732 6.07145 10.9312C6.15232 12.5448 8.38295 23.1479 11.0461 19.9399C12.0181 18.7683 12.8971 17.8517 12.8971 17.8517L13.8516 6.68344V6.68357Z" stroke="white" stroke-width="0.62925" stroke-linecap="round" stroke-linejoin="round"></path>
      <path d="M22.7031 18.0832C22.7031 18.0832 22.879 18.9446 25.4277 18.419C26.5414 18.1887 25.8707 19.0641 24.7422 19.588C23.8159 20.0186 21.7381 20.1285 21.7039 19.5352C21.616 18.0015 22.7972 18.4674 22.712 18.0832C22.6346 17.737 22.1055 17.3977 21.7575 16.5505C21.4525 15.8121 17.5739 10.1432 22.8332 10.9842C23.0266 10.9447 21.4621 5.97461 16.5402 5.90249C11.6184 5.83036 11.774 11.9537 11.774 11.9537" stroke="white" stroke-width="0.62925" stroke-linecap="round" stroke-linejoin="bevel"></path>
      <path d="M14.6366 18.6089C13.9511 19.3752 14.1532 19.5097 12.7822 19.7919C11.3952 20.0775 12.211 20.5864 12.7417 20.72C13.3869 20.8817 14.8792 21.1102 15.8882 19.6977C16.1959 19.2671 15.8865 18.5816 15.4646 18.4076C15.2607 18.3232 14.9882 18.2177 14.6385 18.6097L14.6366 18.6089Z" stroke="white" stroke-width="0.62925" stroke-linejoin="round"></path>
      <path d="M14.5916 18.5954C14.5213 18.1445 14.7393 17.6092 14.9721 16.9817C15.322 16.0414 16.1289 15.1009 15.4838 12.1152C15.003 9.89148 11.7748 11.652 11.7748 11.9535C11.7748 12.255 11.9206 13.4829 11.722 14.911C11.461 16.7761 12.9085 18.3529 14.5749 18.192" stroke="white" stroke-width="0.62925" stroke-linecap="round" stroke-linejoin="round"></path>
      <path d="M13.8211 11.9085C13.8061 12.0113 14.01 12.2864 14.2746 12.3233C14.5391 12.3603 14.765 12.1458 14.78 12.042C14.7948 11.9383 14.591 11.8258 14.3265 11.7889C14.0618 11.752 13.8342 11.8065 13.8211 11.9085Z" fill="white" stroke="white" stroke-width="0.21"></path>
      <path d="M21.8775 11.6986C21.8915 11.8013 21.6885 12.0763 21.424 12.1133C21.1593 12.1502 20.9317 11.9358 20.9186 11.8321C20.9053 11.7283 21.1076 11.6158 21.3721 11.5789C21.6366 11.5421 21.8642 11.5966 21.8775 11.6986Z" fill="white" stroke="white" stroke-width="0.104625"></path>
      <path d="M22.8231 10.9858C22.8669 11.7945 22.6489 12.3437 22.6208 13.2042C22.5804 14.454 23.2168 15.8848 22.2578 17.3175" stroke="white" stroke-width="0.62925" stroke-linecap="round" stroke-linejoin="round"></path>
    </g>
    <defs>
      <clipPath id="clip0_502_188">
        <rect width="32" height="32" fill="white"></rect>
      </clipPath>
    </defs>
  </symbol>
  <symbol fill="none" xmlns="http://www.w3.org/2000/svg" viewBox="0 0 32 32" id="react">
    <g clip-path="url(#clip0_502_199)">
      <path d="M24.5 0H7.5C3.35786 0 0 3.35786 0 7.5V24.5C0 28.6421 3.35786 32 7.5 32H24.5C28.6421 32 32 28.6421 32 24.5V7.5C32 3.35786 28.6421 0 24.5 0Z" fill="#242938"></path>
      <path d="M16 18.3691C17.288 18.3691 18.332 17.325 18.332 16.0371C18.332 14.7492 17.288 13.7051 16 13.7051C14.7121 13.7051 13.668 14.7492 13.668 16.0371C13.668 17.325 14.7121 18.3691 16 18.3691Z" fill="#00D8FF"></path>
      <path d="M16.0002 11.2954C19.1312 11.2954 22.0399 11.7447 24.233 12.4998C26.8754 13.4094 28.5 14.7883 28.5 16.0369C28.5 17.338 26.7782 18.8029 23.9406 19.743C21.7954 20.4538 18.9724 20.8248 16.0002 20.8248C12.953 20.8248 10.0674 20.4765 7.89787 19.7352C5.15312 18.797 3.5 17.3133 3.5 16.0369C3.5 14.7984 5.05125 13.4302 7.6565 12.5219C9.85775 11.7544 12.8381 11.2954 15.9998 11.2954H16.0002Z" stroke="#00D8FF" stroke-width="1.11388"></path>
      <path d="M11.8734 13.6797C13.4376 10.9675 15.2797 8.67225 17.0295 7.14975C19.1375 5.31512 21.1437 4.59662 22.2252 5.22025C23.3524 5.87025 23.7612 8.09375 23.1581 11.0215C22.7025 13.2349 21.6132 15.8656 20.1284 18.4404C18.606 21.0801 16.8629 23.4059 15.137 24.9144C12.9531 26.8234 10.8417 27.5142 9.7361 26.8766C8.66323 26.2584 8.25298 24.2307 8.76773 21.5201C9.2026 19.2297 10.294 16.4186 11.8729 13.6797H11.8734Z" stroke="#00D8FF" stroke-width="1.11388"></path>
      <path d="M11.8746 18.4473C10.306 15.7381 9.23801 12.9953 8.79226 10.7191C8.25563 7.97645 8.63501 5.87957 9.71563 5.25407C10.8418 4.60207 12.9721 5.35832 15.2074 7.34307C16.8974 8.84357 18.6328 11.1007 20.1219 13.6729C21.6486 16.3102 22.7929 18.9821 23.238 21.2306C23.8013 24.0761 23.3454 26.2502 22.2408 26.8896C21.169 27.5101 19.2076 26.8532 17.1163 25.0534C15.3493 23.5329 13.4588 21.1836 11.8746 18.4473Z" stroke="#00D8FF" stroke-width="1.11388"></path>
    </g>
    <defs>
      <clipPath id="clip0_502_199">
        <rect width="32" height="32" fill="white"></rect>
      </clipPath>
    </defs>
  </symbol>
  <symbol fill="none" xmlns="http://www.w3.org/2000/svg" viewBox="0 0 32 32" id="redis">
    <g clip-path="url(#clip0_502_206)">
      <path d="M24.5 0H7.5C3.35786 0 0 3.35786 0 7.5V24.5C0 28.6421 3.35786 32 7.5 32H24.5C28.6421 32 32 28.6421 32 24.5V7.5C32 3.35786 28.6421 0 24.5 0Z" fill="#242938"></path>
      <mask id="mask0_502_206" maskUnits="userSpaceOnUse" x="3" y="3" width="26" height="26">
        <path d="M3.5 3.5H28.5V28.5H3.5V3.5Z" fill="white"></path>
      </mask>
      <g mask="url(#mask0_502_206)">
        <path d="M27.5189 21.8086C26.1848 22.5045 19.2743 25.3457 17.803 26.1125C16.3316 26.8794 15.5145 26.8721 14.352 26.3166C13.1895 25.7612 5.83562 22.7909 4.51 22.1572C3.84725 21.8404 3.5 21.574 3.5 21.3221V18.7951C3.5 18.7951 13.0749 16.7107 14.621 16.156C16.1672 15.6012 16.7021 15.5814 18.0184 16.0632C19.3346 16.545 27.1995 17.964 28.4991 18.4405V20.9325C28.4991 21.1824 28.1996 21.4626 27.5203 21.81L27.5189 21.8086Z" fill="#A41E11"></path>
        <path d="M27.5197 19.2809C26.1854 19.9768 19.2749 22.818 17.8037 23.5848C16.3323 24.3517 15.5152 24.3443 14.3527 23.7889C13.1902 23.2335 5.83628 20.263 4.51065 19.6295C3.18515 18.9959 3.15865 18.5605 4.45965 18.0508L14.621 14.1167C16.1667 13.5627 16.7022 13.542 18.0183 14.0239C19.3345 14.5058 26.2034 17.2397 27.5024 17.7234C28.8014 18.2073 28.8524 18.5917 27.5183 19.2875L27.5197 19.2809Z" fill="#D82C20"></path>
        <path d="M27.5189 17.6875C26.1848 18.3834 19.2743 21.2247 17.803 21.9914C16.3316 22.7583 15.5145 22.7509 14.352 22.1955C13.1895 21.6402 5.83562 18.6697 4.51 18.0362C3.84725 17.7193 3.5 17.4529 3.5 17.201V14.6739C3.5 14.6739 13.0749 12.5895 14.621 12.0349C16.1672 11.4802 16.7021 11.4603 18.0184 11.942C19.3346 12.4239 27.1995 13.8429 28.4991 14.3194V16.8114C28.4991 17.0612 28.1996 17.3415 27.5203 17.6888L27.5189 17.6875Z" fill="#A41E11"></path>
        <path d="M27.5197 15.1603C26.1854 15.8562 19.2749 18.6974 17.8037 19.4643C16.3323 20.2311 15.5152 20.2238 14.3527 19.6684C13.1902 19.1129 5.83628 16.1426 4.51065 15.5089C3.18515 14.8753 3.15865 14.4399 4.45965 13.9302L14.621 9.9968C16.1667 9.44205 16.7022 9.42218 18.0183 9.90405C19.3345 10.3858 26.2034 13.1203 27.5037 13.5956C28.804 14.0708 28.8538 14.4638 27.5197 15.1597V15.1603Z" fill="#D82C20"></path>
        <path d="M27.5189 13.4142C26.1848 14.1101 19.2743 16.9513 17.803 17.7188C16.3316 18.4863 15.5145 18.4783 14.352 17.923C13.1895 17.3676 5.83562 14.3971 4.51 13.7635C3.84725 13.4467 3.5 13.1803 3.5 12.9285V10.4C3.5 10.4 13.0749 8.31571 14.621 7.76096C16.1672 7.20621 16.7021 7.18634 18.0184 7.66821C19.3346 8.14996 27.1995 9.56896 28.4991 10.0455V12.5375C28.4991 12.7873 28.1996 13.0676 27.5203 13.415L27.5189 13.4142Z" fill="#A41E11"></path>
        <path d="M27.5197 10.8864C26.1854 11.5823 19.2749 14.4235 17.8037 15.1904C16.3323 15.9571 15.5152 15.9499 14.3527 15.3945C13.1902 14.8391 5.83628 11.8686 4.51065 11.235C3.18515 10.6014 3.15865 10.166 4.45965 9.65625L14.621 5.72288C16.1667 5.16813 16.7022 5.14825 18.0183 5.63013C19.3345 6.11188 26.2034 8.84638 27.5037 9.32163C28.804 9.79688 28.8538 10.1899 27.5197 10.8858V10.8864Z" fill="#D82C20"></path>
        <path d="M16.6236 9.84461L15.8402 8.54236L13.339 8.31699L15.2053 7.64361L14.6452 6.60986L16.3923 7.29236L18.0398 6.75286L17.5945 7.82124L19.274 8.45086L17.1081 8.67624L16.6236 9.84461ZM12.4508 12.4374L18.2433 11.548L16.4937 14.1141L12.4508 12.4374ZM10.8895 11.5022C12.5995 11.5022 13.9858 10.9647 13.9858 10.302C13.9858 9.63911 12.5995 9.10174 10.8895 9.10174C9.17934 9.10174 7.79297 9.63911 7.79297 10.302C7.79297 10.9649 9.17922 11.5022 10.8895 11.5022Z" fill="white"></path>
        <path d="M25.2649 10.1269L21.8386 11.4802L21.8359 8.77148L25.2649 10.1269Z" fill="#7A0C00"></path>
        <path d="M21.8378 11.4803L21.4667 11.6262L18.043 10.2728L21.8358 8.77246L21.8378 11.4805V11.4803Z" fill="#AD2115"></path>
      </g>
    </g>
    <defs>
      <clipPath id="clip0_502_206">
        <rect width="32" height="32" fill="white"></rect>
      </clipPath>
    </defs>
  </symbol>


<symbol id="tailwindcss" viewBox="0 0 32 32" fill="none" xmlns="http://www.w3.org/2000/svg">
<g clip-path="url(#clip0_503_119)">
<path d="M24.5 0H7.5C3.35786 0 0 3.35786 0 7.5V24.5C0 28.6421 3.35786 32 7.5 32H24.5C28.6421 32 32 28.6421 32 24.5V7.5C32 3.35786 28.6421 0 24.5 0Z" fill="#242938"/>
<path fill-rule="evenodd" clip-rule="evenodd" d="M10.375 13.75C11.125 10.75 13.0001 9.25 16 9.25C20.5 9.25 21.0625 12.625 23.3125 13.1875C24.8126 13.5626 26.125 13.0001 27.25 11.5C26.5001 14.4999 24.6249 16 21.625 16C17.125 16 16.5625 12.625 14.3125 12.0625C12.8124 11.6875 11.5 12.25 10.375 13.75ZM4.75 20.5C5.5 17.5001 7.375 16 10.375 16C14.875 16 15.4375 19.375 17.6875 19.9375C19.1876 20.3126 20.5 19.7501 21.625 18.25C20.8751 21.2499 18.9999 22.75 16 22.75C11.5 22.75 10.9375 19.375 8.6875 18.8125C7.1875 18.4374 5.875 18.9999 4.75 20.5Z" fill="#32B1C1"/>
</g>
<defs>
<clipPath id="clip0_503_119">
<rect width="32" height="32" fill="white"/>
</clipPath>
</defs>
</symbol>

<symbol id="python" viewBox="0 0 32 32" fill="none" xmlns="http://www.w3.org/2000/svg">
<g clip-path="url(#clip0_503_123)">
<path d="M24.5 0H7.5C3.35786 0 0 3.35786 0 7.5V24.5C0 28.6421 3.35786 32 7.5 32H24.5C28.6421 32 32 28.6421 32 24.5V7.5C32 3.35786 28.6421 0 24.5 0Z" fill="#242938"/>
<path d="M15.9099 3.625C9.56337 3.625 9.95963 6.37725 9.95963 6.37725L9.96675 9.2285H16.0231V10.0848H7.56112C7.56112 10.0848 3.5 9.624 3.5 16.0276C3.5 22.4314 7.04462 22.2044 7.04462 22.2044H9.16012V19.2327C9.16012 19.2327 9.04612 15.6881 12.6482 15.6881H18.655C18.655 15.6881 22.0299 15.7426 22.0299 12.4264V6.94325C22.0299 6.94325 22.5422 3.625 15.9099 3.625ZM12.5704 5.54238C12.7135 5.54223 12.8553 5.57031 12.9875 5.62502C13.1198 5.67972 13.24 5.75998 13.3412 5.86119C13.4424 5.9624 13.5227 6.08258 13.5774 6.21484C13.6321 6.34711 13.6601 6.48887 13.66 6.632C13.6601 6.77512 13.632 6.91687 13.5773 7.04912C13.5226 7.18137 13.4424 7.30153 13.3411 7.40273C13.2399 7.50393 13.1198 7.58417 12.9875 7.63887C12.8552 7.69357 12.7135 7.72165 12.5704 7.7215C12.4273 7.72163 12.2855 7.69354 12.1533 7.63883C12.021 7.58413 11.9009 7.50388 11.7997 7.40269C11.6985 7.30149 11.6182 7.18133 11.5635 7.04909C11.5088 6.91685 11.4807 6.77511 11.4809 6.632C11.4807 6.48888 11.5088 6.34713 11.5635 6.21487C11.6182 6.08261 11.6984 5.96244 11.7996 5.86123C11.9008 5.76002 12.021 5.67977 12.1533 5.62505C12.2855 5.57034 12.4273 5.54224 12.5704 5.54238Z" fill="#387EB8"/>
<path d="M16.0902 28.4949C22.4367 28.4949 22.0405 25.7428 22.0405 25.7428L22.0334 22.8914H15.977V22.0353H24.439C24.439 22.0353 28.5001 22.4959 28.5001 16.0922C28.5001 9.68842 24.9555 9.91555 24.9555 9.91555H22.84V12.8872C22.84 12.8872 22.954 16.4318 19.3519 16.4318H13.3451C13.3451 16.4318 9.97011 16.3772 9.97011 19.6934V25.1767C9.97011 25.1767 9.45774 28.4949 16.0902 28.4949ZM19.4297 26.5775C19.2866 26.5777 19.1449 26.5496 19.0126 26.4949C18.8804 26.4402 18.7602 26.36 18.659 26.2588C18.5578 26.1576 18.4775 26.0374 18.4228 25.9052C18.3681 25.7729 18.34 25.6312 18.3401 25.488C18.34 25.3449 18.368 25.2032 18.4228 25.0709C18.4775 24.9386 18.5577 24.8184 18.6589 24.7172C18.7601 24.616 18.8803 24.5358 19.0126 24.4811C19.1448 24.4264 19.2866 24.3983 19.4297 24.3984C19.5729 24.3983 19.7146 24.4264 19.8469 24.4811C19.9791 24.5358 20.0993 24.6161 20.2005 24.7173C20.3017 24.8185 20.382 24.9387 20.4367 25.0709C20.4914 25.2032 20.5195 25.3449 20.5194 25.488C20.5195 25.6312 20.4914 25.7729 20.4367 25.9051C20.3819 26.0374 20.3017 26.1575 20.2005 26.2587C20.0993 26.3599 19.9791 26.4402 19.8468 26.4949C19.7146 26.5496 19.5729 26.5777 19.4297 26.5775Z" fill="#FFE052"/>
</g>
<defs>
<clipPath id="clip0_503_123">
<rect width="32" height="32" fill="white"/>
</clipPath>
</defs>
</symbol>





  <symbol fill="none" xmlns="http://www.w3.org/2000/svg" viewBox="0 0 32 32" id="typescript">
    <g clip-path="url(#clip0_502_231)">
      <path d="M24.5 0H7.5C3.35786 0 0 3.35786 0 7.5V24.5C0 28.6421 3.35786 32 7.5 32H24.5C28.6421 32 32 28.6421 32 24.5V7.5C32 3.35786 28.6421 0 24.5 0Z" fill="#007ACC"></path>
      <path d="M7.07653 16.1062L7.06641 17.4167H11.2314V29.2515H14.1777V17.4167H18.3427V16.1315C18.3427 15.4204 18.3275 14.8262 18.3072 14.8109C18.2919 14.7907 15.7573 14.7804 12.6843 14.7855L7.09191 14.8008L7.07653 16.1062ZM25.821 14.7635C26.6337 14.9668 27.2534 15.3274 27.8223 15.9165C28.1169 16.2315 28.5537 16.8055 28.5893 16.9427C28.5994 16.9833 27.2077 17.9179 26.3645 18.441C26.334 18.4614 26.212 18.3293 26.0749 18.1262C25.6635 17.5268 25.2318 17.2677 24.5714 17.222C23.6013 17.1559 22.9765 17.6639 22.9817 18.5122C22.9817 18.761 23.0172 18.9083 23.1188 19.1115C23.332 19.5534 23.7283 19.8175 24.9728 20.3559C27.2635 21.3414 28.2438 21.9915 28.8534 22.9159C29.534 23.947 29.6864 25.5928 29.2242 26.8169C28.7163 28.1477 27.4565 29.0518 25.6838 29.3515C25.1353 29.448 23.8349 29.4328 23.2458 29.3262C21.9607 29.0975 20.7417 28.4627 19.9899 27.6297C19.6953 27.3045 19.1213 26.4563 19.1569 26.3953C19.172 26.375 19.3042 26.2938 19.4514 26.2074C19.5937 26.1262 20.1322 25.8163 20.64 25.5217L21.5594 24.9883L21.7524 25.2728C22.0217 25.6842 22.6108 26.248 22.9664 26.4359C23.9873 26.9744 25.3893 26.8982 26.08 26.2785C26.3747 26.0093 26.4965 25.7299 26.4965 25.3185C26.4965 24.9477 26.4508 24.7852 26.2578 24.5058C26.0089 24.1503 25.501 23.8505 24.0584 23.2258C22.4077 22.5147 21.6965 22.0728 21.0464 21.3718C20.6705 20.9655 20.3149 20.3153 20.1677 19.7718C20.0458 19.3198 20.0153 18.187 20.1118 17.7299C20.452 16.135 21.6559 15.0227 23.393 14.6924C23.9569 14.5858 25.2673 14.6264 25.821 14.7635Z" fill="white"></path>
    </g>
    <defs>
      <clipPath id="clip0_502_231">
        <rect width="32" height="32" fill="white"></rect>
      </clipPath>
    </defs>
  </symbol>
  <symbol fill="none" xmlns="http://www.w3.org/2000/svg" viewBox="0 0 32 32" id="wordpress">
    <g clip-path="url(#clip0_502_235)">
      <path d="M24.5 0H7.5C3.35786 0 0 3.35786 0 7.5V24.5C0 28.6421 3.35786 32 7.5 32H24.5C28.6421 32 32 28.6421 32 24.5V7.5C32 3.35786 28.6421 0 24.5 0Z" fill="#0073AA"></path>
      <path d="M5.27735 15.9994C5.27735 20.2437 7.74397 23.9117 11.3207 25.65L6.20572 11.6355C5.59257 13.0085 5.27621 14.4956 5.27735 15.9994ZM23.2391 15.4582C23.2391 14.1331 22.7631 13.2154 22.3548 12.501C21.8112 11.6177 21.3017 10.8697 21.3017 9.98648C21.3017 9.00073 22.0493 8.08323 23.1023 8.08323C23.15 8.08323 23.195 8.08911 23.2413 8.09173C21.3336 6.34398 18.792 5.27686 16.0002 5.27686C12.2542 5.27686 8.95835 7.19885 7.0411 10.1101C7.2926 10.1176 7.52972 10.123 7.7311 10.123C8.85272 10.123 10.5888 9.98673 10.5888 9.98673C11.1668 9.95273 11.2351 10.8017 10.6576 10.8701C10.6576 10.8701 10.0767 10.9385 9.43035 10.9724L13.3351 22.5871L15.6817 15.5492L14.0111 10.972C13.4337 10.9381 12.8867 10.8697 12.8867 10.8697C12.3088 10.8359 12.3766 9.95236 12.9545 9.98648C12.9545 9.98648 14.7252 10.1225 15.7788 10.1225C16.9003 10.1225 18.6366 9.98648 18.6366 9.98648C19.2151 9.95236 19.283 10.8014 18.7053 10.8697C18.7053 10.8697 18.1232 10.9381 17.4781 10.972L21.3532 22.4987L22.4227 18.9247C22.8863 17.4415 23.2391 16.3762 23.2391 15.4582Z" fill="white"></path>
      <path d="M16.186 16.9375L12.9688 26.2862C13.9524 26.5759 14.9725 26.7231 15.9979 26.7231C17.2106 26.7235 18.4147 26.518 19.5586 26.1152C19.5289 26.0683 19.5034 26.0189 19.4824 25.9675L16.186 16.9375ZM25.4067 10.855C25.4555 11.2204 25.4797 11.5888 25.479 11.9575C25.479 13.0456 25.2758 14.2689 24.6636 15.7984L21.3883 25.2682C24.5761 23.4092 26.7204 19.9556 26.7204 15.9997C26.7205 14.1354 26.2444 12.3822 25.4067 10.855Z" fill="white"></path>
      <path d="M15.9998 3.5C9.1075 3.5 3.5 9.10713 3.5 15.9993C3.5 22.8923 9.1075 28.4991 15.9998 28.4991C22.8916 28.4991 28.5 22.8923 28.5 15.9993C28.4997 9.10713 22.8916 3.5 15.9998 3.5ZM15.9998 27.9263C9.4235 27.9263 4.07312 22.5758 4.07312 15.9993C4.07312 9.42313 9.42338 4.07312 15.9998 4.07312C22.5756 4.07312 27.9256 9.42313 27.9256 15.9993C27.9256 22.5758 22.5756 27.9263 15.9998 27.9263Z" fill="white"></path>
    </g>
    <defs>
      <clipPath id="clip0_502_235">
        <rect width="32" height="32" fill="white"></rect>
      </clipPath>
    </defs>
  </symbol>
  <symbol fill="none" xmlns="http://www.w3.org/2000/svg" viewBox="0 0 32 32" id="alpinejs">
    <g clip-path="url(#clip0_502_115)">
      <path d="M24.5 0H7.5C3.35786 0 0 3.35786 0 7.5V24.5C0 28.6421 3.35786 32 7.5 32H24.5C28.6421 32 32 28.6421 32 24.5V7.5C32 3.35786 28.6421 0 24.5 0Z" fill="#242938"></path>
      <path fill-rule="evenodd" clip-rule="evenodd" d="M22.5982 10.5L27.8759 15.7546L22.5982 21.0093L17.3203 15.7546L22.5982 10.5Z" fill="#D8DEE9"></path>
      <path fill-rule="evenodd" clip-rule="evenodd" d="M9.40275 10.5L20.3442 21.3935H9.78875L4.125 15.7546L9.40275 10.5Z" fill="#77C1D2"></path>
    </g>
    <defs>
      <clipPath id="clip0_502_115">
        <rect width="32" height="32" fill="white"></rect>
      </clipPath>
    </defs>
  </symbol>
  <symbol id="astro" viewBox="0 0 32 32" fill="none" xmlns="http://www.w3.org/2000/svg">
<g clip-path="url(#clip0_503_108)">
<path d="M24.5 0H7.5C3.35786 0 0 3.35786 0 7.5V24.5C0 28.6421 3.35786 32 7.5 32H24.5C28.6421 32 32 28.6421 32 24.5V7.5C32 3.35786 28.6421 0 24.5 0Z" fill="#242938"/>
<path fill-rule="evenodd" clip-rule="evenodd" d="M19.7149 4.12638C19.9191 4.37988 20.0231 4.722 20.2314 5.406L24.7809 20.3511C23.072 19.4644 21.2379 18.8434 19.3417 18.5096L16.3796 8.49963C16.362 8.43999 16.3301 8.38551 16.2868 8.34083C16.2436 8.29616 16.1901 8.26261 16.1311 8.24305C16.072 8.22349 16.0091 8.2185 15.9477 8.2285C15.8863 8.23851 15.8283 8.26321 15.7785 8.3005C15.7119 8.3505 15.6633 8.42075 15.6399 8.50075L12.7135 18.5046C10.8088 18.8368 8.96631 19.4587 7.25 20.3489L11.8216 5.40263C12.0307 4.71963 12.135 4.37825 12.3392 4.12525C12.5195 3.90183 12.754 3.72831 13.0204 3.62125C13.3221 3.5 13.6791 3.5 14.3934 3.5H17.6588C18.3739 3.5 18.7314 3.5 19.0334 3.6215C19.3 3.72881 19.5346 3.90255 19.7149 4.12638Z" fill="white"/>
<path fill-rule="evenodd" clip-rule="evenodd" d="M20.2593 21.0624C19.5093 21.7038 18.0123 22.1411 16.2881 22.1411C14.1717 22.1411 12.3978 21.4822 11.9272 20.5962C11.759 21.1041 11.7212 21.6852 11.7212 22.0566C11.7212 22.0566 11.6103 23.8797 12.8783 25.1477C12.8783 24.8315 13.0039 24.5282 13.2275 24.3046C13.4511 24.0811 13.7544 23.9554 14.0706 23.9554C15.1991 23.9554 15.1978 24.9401 15.1967 25.7389V25.8102C15.1967 27.0227 15.9377 28.0621 16.9916 28.5001C16.8294 28.1662 16.7453 27.7998 16.7458 27.4286C16.7458 26.2722 17.4248 25.8416 18.2138 25.3413C18.8416 24.9432 19.5391 24.5008 20.0198 23.6133C20.2787 23.1353 20.4138 22.6002 20.413 22.0566C20.413 21.7099 20.3591 21.3759 20.2593 21.0624Z" fill="#FF5D01"/>
<path fill-rule="evenodd" clip-rule="evenodd" d="M20.2593 21.0624C19.5093 21.7038 18.0123 22.1411 16.2881 22.1411C14.1717 22.1411 12.3978 21.4822 11.9272 20.5962C11.759 21.1041 11.7212 21.6852 11.7212 22.0566C11.7212 22.0566 11.6103 23.8797 12.8783 25.1477C12.8783 24.8315 13.0039 24.5282 13.2275 24.3046C13.4511 24.0811 13.7544 23.9554 14.0706 23.9554C15.1991 23.9554 15.1978 24.9401 15.1967 25.7389V25.8102C15.1967 27.0227 15.9377 28.0621 16.9916 28.5001C16.8294 28.1662 16.7453 27.7998 16.7458 27.4286C16.7458 26.2722 17.4248 25.8416 18.2138 25.3413C18.8416 24.9432 19.5391 24.5008 20.0198 23.6133C20.2787 23.1353 20.4138 22.6002 20.413 22.0566C20.413 21.7099 20.3591 21.3759 20.2593 21.0624Z" fill="url(#paint0_linear_503_108)"/>
</g>
<defs>
</defs>
</symbol>


</svg>